<svg style="position: absolute; width: 0; height: 0; overflow: hidden;" version="1.1" xmlns="http://www.w3.org/2000/svg" xmlns:xlink="http://www.w3.org/1999/xlink">
<defs>
<symbol id="icon-treat-1" viewBox="0 0 32 32">
<title>treat-1</title>
<path class="path1" fill="#fff" d="M3.341 9.008c0.102-0.131 0.272-0.189 0.435-0.182 1.174-0.032 2.352 0.253 3.379 0.819 0.851 0.464 1.594 1.117 2.166 1.894 0.4 0.534 0.71 1.133 0.947 1.757 0.611-1.242 1.613-2.288 2.832-2.944 1.085-0.589 2.339-0.87 3.571-0.794 1.574 0.086 3.101 0.765 4.234 1.859 0.56 0.557 1.053 1.194 1.382 1.917 0.358-1.037 0.982-1.981 1.789-2.72 0.874-0.816 1.971-1.382 3.139-1.632 0.55-0.128 1.117-0.17 1.677-0.134 0.182 0.010 0.352 0.134 0.419 0.304 0.032 0.083 0.032 0.176 0.064 0.262 0.848 1.843 1.267 3.869 1.37 5.891 0.102 2.237-0.173 4.506-0.934 6.618-0.067 0.227-0.301 0.336-0.506 0.41-0.381 0.045-0.768 0.064-1.152 0.026-1.984-0.102-3.872-1.187-5.011-2.806-0.208-0.294-0.394-0.608-0.557-0.931-0.365 1.021-0.976 1.955-1.77 2.688-0.854 0.797-1.923 1.36-3.059 1.619-0.365 0.093-0.742 0.112-1.117 0.147-0.31 0.032-0.624 0.010-0.934-0.016-1.050-0.070-2.077-0.419-2.963-0.982-0.403-0.234-0.758-0.538-1.101-0.851-0.432-0.406-0.794-0.886-1.11-1.389-0.224-0.387-0.429-0.794-0.573-1.216-0.461 0.938-1.142 1.766-1.974 2.397-0.986 0.742-2.176 1.226-3.408 1.318-0.298 0.019-0.598 0.061-0.896 0.026-0.102-0.003-0.218-0.042-0.307 0.026-0.176 0.106-0.416 0.074-0.566-0.064-0.080-0.070-0.125-0.166-0.16-0.262-0.499-1.392-0.784-2.858-0.893-4.33-0.134-1.818-0.003-3.658 0.416-5.434 0.234-0.989 0.566-1.958 1.005-2.88 0.070-0.134 0.064-0.298 0.166-0.41zM4.090 9.814c-0.224 0.445-0.419 0.909-0.57 1.382-0.362 1.021-0.582 2.090-0.71 3.165-0.266 2.336-0.080 4.739 0.643 6.982 0.278 0.022 0.56 0.048 0.838 0.013 1.11-0.045 2.195-0.458 3.082-1.123 0.925-0.701 1.632-1.68 2-2.781-0.682 0.278-1.405 0.458-2.138 0.512-0.278 0.016-0.557 0.051-0.835 0.035-0.24-0.013-0.442-0.227-0.451-0.464-0.019-0.259 0.195-0.509 0.454-0.518 0.461-0.006 0.918-0.045 1.373-0.118 0.621-0.118 1.226-0.33 1.789-0.621 0.003-0.336 0.035-0.672 0.080-1.005-0.058-0.032-0.118-0.064-0.17-0.109-0.8-0.835-1.84-1.44-2.96-1.734-0.118-0.032-0.243-0.064-0.33-0.154-0.17-0.157-0.198-0.438-0.067-0.627 0.112-0.176 0.342-0.259 0.544-0.202 0.976 0.25 1.91 0.685 2.704 1.306-0.451-1.408-1.482-2.618-2.797-3.293-0.765-0.406-1.619-0.627-2.48-0.646zM27.053 10.035c-1.114 0.314-2.118 0.986-2.854 1.878-0.381 0.461-0.678 0.982-0.906 1.533 0.803-0.579 1.722-1.002 2.688-1.222 0.144-0.032 0.304 0.006 0.416 0.102 0.17 0.134 0.23 0.384 0.141 0.582-0.064 0.15-0.205 0.259-0.365 0.288-1.155 0.272-2.234 0.87-3.069 1.715-0.058 0.064-0.125 0.115-0.198 0.163-0.016 0.23 0.042 0.454 0.054 0.682 0.362 0.179 0.742 0.32 1.133 0.429 0.57 0.17 1.168 0.211 1.76 0.234 0.189-0.003 0.397-0.051 0.56 0.070 0.253 0.16 0.294 0.55 0.077 0.758-0.163 0.176-0.422 0.154-0.64 0.163-0.278-0.010-0.557-0.032-0.835-0.054-0.688-0.058-1.36-0.24-2-0.49 0.118 0.496 0.285 0.986 0.528 1.437 0.243 0.435 0.515 0.858 0.854 1.226 0.17 0.192 0.371 0.352 0.557 0.528 0.765 0.637 1.696 1.075 2.678 1.242 0.435 0.054 0.874 0.106 1.312 0.064 0.211-0.602 0.371-1.219 0.499-1.843 0.413-2.080 0.432-4.24 0.064-6.33-0.208-1.158-0.541-2.298-1.037-3.366-0.47 0.022-0.954 0.077-1.418 0.211zM14.278 10.893c2.461 2.461 4.922 4.918 7.379 7.379 0.179-0.506 0.294-1.034 0.323-1.568-0.019-0.214-0.051-0.426-0.083-0.637-0.006-0.288 0.016-0.579-0.010-0.867-0.259-1.37-1.040-2.634-2.144-3.488-0.458-0.333-0.95-0.63-1.485-0.822-1.27-0.48-2.71-0.474-3.981 0.003zM12.102 12.355c2.71 2.714 5.421 5.424 8.131 8.131 0.387-0.368 0.714-0.797 0.982-1.258-2.627-2.627-5.254-5.248-7.875-7.878-0.458 0.275-0.87 0.618-1.238 1.005zM10.947 14.208c-0.253 0.643-0.378 1.328-0.397 2.019-0.006 0.118 0.038 0.234 0.032 0.352-0.035 0.314 0.035 0.624 0.099 0.931 0.195 1.021 0.701 1.968 1.392 2.736 0.883 0.95 2.086 1.613 3.376 1.786 0.33 0.032 0.662 0.070 0.992 0.058 0.419-0.035 0.842-0.054 1.248-0.173 0.63-0.163 1.226-0.435 1.766-0.797-2.656-2.659-5.312-5.318-7.974-7.974-0.202 0.339-0.397 0.688-0.534 1.062z"></path>
</symbol>
<symbol id="icon-treat-2" viewBox="0 0 32 32">
<title>treat-2</title>
<path class="path1" fill="#fff" d="M3.363 8.912c0.118-0.022 0.227-0.083 0.349-0.086 1.082-0.042 2.176 0.189 3.149 0.666 1.405 0.672 2.547 1.859 3.187 3.277 0.080 0.173 0.157 0.346 0.221 0.525 0.547-1.107 1.402-2.064 2.448-2.72 1.168-0.742 2.573-1.107 3.952-1.021 1.568 0.086 3.088 0.758 4.221 1.843 0.57 0.56 1.066 1.206 1.398 1.936 0.57-1.677 1.85-3.091 3.446-3.853 0.982-0.464 2.077-0.71 3.165-0.643 0.125 0.006 0.234 0.080 0.346 0.122 0.502 0.195 0.938 0.557 1.238 1.005 0.688 1.011 0.672 2.445-0.045 3.437 0.413 0.333 0.72 0.781 0.902 1.274 0.355 0.982 0.186 2.16-0.499 2.96 0.56 0.736 0.749 1.728 0.515 2.618-0.205 0.813-0.774 1.542-1.555 1.872-0.118 0.061-0.256 0.064-0.368 0.138-0.131 0.083-0.294 0.067-0.442 0.080-0.48 0.048-0.96-0.010-1.437-0.064-1.76-0.269-3.389-1.293-4.413-2.746-0.208-0.294-0.39-0.608-0.557-0.928-0.397 1.11-1.088 2.118-1.99 2.883-0.845 0.72-1.875 1.222-2.96 1.453-0.317 0.070-0.64 0.086-0.963 0.115-0.346 0.035-0.694 0.013-1.040-0.019-1.216-0.093-2.387-0.573-3.366-1.296-0.451-0.355-0.886-0.742-1.232-1.203-0.464-0.579-0.829-1.235-1.075-1.936-0.47 0.976-1.194 1.827-2.064 2.47-0.986 0.717-2.166 1.178-3.386 1.254-0.288 0.019-0.579 0.051-0.87 0.019-0.186-0.022-0.371-0.013-0.554-0.026-0.493-0.090-0.96-0.33-1.315-0.682-0.819-0.79-1.085-2.074-0.704-3.139 0.080-0.253 0.202-0.493 0.358-0.704-0.48-0.512-0.739-1.206-0.774-1.901 0.006-0.128 0.010-0.256 0.006-0.384 0.064-0.835 0.493-1.645 1.178-2.141-0.365-0.541-0.541-1.203-0.502-1.856 0.048-0.682 0.307-1.36 0.781-1.856 0.333-0.349 0.768-0.637 1.251-0.742zM2.893 10.288c-0.41 0.397-0.602 0.989-0.557 1.552 0.038 0.442 0.195 0.89 0.506 1.213 0.109 0.106 0.17 0.262 0.15 0.416-0.013 0.157-0.128 0.269-0.189 0.406-0.067 0.134-0.211 0.195-0.333 0.272-0.378 0.243-0.627 0.64-0.755 1.062-0.067 0.224-0.067 0.458-0.061 0.691 0.032 0.502 0.234 1.011 0.621 1.341 0.115 0.109 0.278 0.173 0.355 0.317 0.112 0.189 0.074 0.448-0.083 0.598-0.074 0.077-0.179 0.115-0.278 0.144-0.086 0.173-0.202 0.33-0.256 0.518-0.24 0.659-0.115 1.44 0.326 1.984 0.234 0.246 0.518 0.474 0.861 0.534 0.202 0 0.403 0.019 0.605 0.032 0.189 0.019 0.378-0.010 0.563-0.019 1.206-0.064 2.374-0.56 3.286-1.347 0.899-0.771 1.552-1.827 1.843-2.976-0.944 0.506-1.994 0.819-3.066 0.886-0.166 0.006-0.349 0.048-0.506-0.035-0.186-0.090-0.298-0.304-0.269-0.506 0.026-0.224 0.221-0.413 0.445-0.426 0.333-0.022 0.666-0.048 0.992-0.106 0.883-0.17 1.734-0.512 2.48-1.014 0.010-0.106 0.019-0.211 0.029-0.314-0.163-0.189-0.355-0.352-0.547-0.509-0.832-0.694-1.856-1.139-2.918-1.347-0.262-0.048-0.442-0.336-0.374-0.595 0.054-0.259 0.339-0.435 0.595-0.368 1.114 0.221 2.186 0.678 3.094 1.36-0.099-0.33-0.205-0.662-0.358-0.973-0.371-0.771-0.912-1.462-1.581-2-1.021-0.826-2.333-1.283-3.648-1.261-0.352 0.058-0.723 0.186-0.973 0.467zM27.997 9.859c-1.050 0.099-2.061 0.522-2.89 1.171-0.88 0.688-1.558 1.632-1.91 2.694 0.717-0.413 1.491-0.736 2.307-0.893 0.144-0.032 0.301 0.010 0.416 0.106 0.198 0.16 0.237 0.48 0.077 0.682-0.109 0.157-0.307 0.192-0.48 0.224-0.435 0.118-0.867 0.246-1.27 0.451-0.483 0.218-0.928 0.509-1.341 0.842 0.006 0.272 0.067 0.538 0.070 0.81 0.835 0.579 1.808 0.954 2.813 1.101 0.208 0.035 0.458 0 0.621 0.163 0.227 0.198 0.202 0.602-0.051 0.768-0.173 0.134-0.403 0.083-0.602 0.064-0.928-0.115-1.827-0.413-2.653-0.851 0.112 0.387 0.256 0.765 0.448 1.12 0.278 0.502 0.602 0.982 1.011 1.386 0.234 0.218 0.464 0.435 0.726 0.618 0.838 0.598 1.84 0.986 2.874 1.043 0.33 0.032 0.659 0.029 0.986-0.013 0.17-0.090 0.352-0.154 0.509-0.262 0.362-0.23 0.608-0.614 0.726-1.021 0.141-0.49 0.096-1.030-0.125-1.488-0.102-0.218-0.256-0.4-0.41-0.582-0.144-0.125-0.214-0.336-0.154-0.518 0.029-0.122 0.122-0.211 0.214-0.291 0.269-0.234 0.438-0.563 0.538-0.902 0.208-0.717-0.013-1.555-0.586-2.045-0.118-0.115-0.269-0.182-0.406-0.266-0.224-0.134-0.323-0.448-0.208-0.685 0.051-0.112 0.154-0.186 0.237-0.275 0.317-0.342 0.493-0.803 0.512-1.267 0.035-0.698-0.304-1.43-0.928-1.773-0.147-0.067-0.294-0.16-0.461-0.144-0.205-0.013-0.406 0.019-0.611 0.035zM14.102 10.966c-1.059 0.432-1.968 1.2-2.598 2.154 0.221 0.054 0.422 0.173 0.592 0.323 0.4 0.339 0.643 0.826 1.062 1.146 0.214 0.173 0.496 0.288 0.774 0.221 0.346-0.090 0.608-0.352 0.835-0.611 0.269-0.326 0.518-0.682 0.886-0.906 0.256-0.163 0.586-0.23 0.88-0.134 0.378 0.125 0.672 0.416 0.918 0.717 0.256 0.326 0.525 0.666 0.902 0.858 0.243 0.125 0.544 0.125 0.787 0 0.413-0.208 0.691-0.592 0.973-0.947 0.246-0.291 0.528-0.595 0.912-0.685-0.266-0.394-0.576-0.755-0.922-1.078-0.451-0.413-0.976-0.742-1.53-0.998-1.398-0.63-3.059-0.656-4.474-0.058zM20.931 13.987c-0.253 0.131-0.432 0.358-0.608 0.573-0.275 0.352-0.57 0.707-0.96 0.934-0.259 0.154-0.576 0.224-0.87 0.144-0.387-0.096-0.698-0.371-0.966-0.656-0.304-0.323-0.531-0.739-0.938-0.944-0.227-0.125-0.515-0.112-0.736 0.022-0.397 0.224-0.621 0.64-0.931 0.96-0.253 0.266-0.547 0.518-0.909 0.611-0.288 0.077-0.598 0.003-0.851-0.15-0.422-0.253-0.72-0.65-1.024-1.027-0.205-0.234-0.448-0.49-0.778-0.509-0.118 0.003-0.259 0.022-0.346 0.109-0.234 0.528-0.365 1.101-0.432 1.674 0.208-0.186 0.464-0.339 0.752-0.342 0.282-0.003 0.538 0.141 0.746 0.317 0.416 0.342 0.662 0.848 1.098 1.171 0.218 0.173 0.512 0.285 0.79 0.202 0.374-0.115 0.65-0.419 0.893-0.71 0.259-0.333 0.538-0.678 0.925-0.867 0.253-0.128 0.56-0.147 0.822-0.038 0.39 0.154 0.678 0.474 0.931 0.797 0.246 0.307 0.515 0.624 0.886 0.781 0.256 0.112 0.557 0.077 0.79-0.064 0.422-0.24 0.691-0.656 0.998-1.018 0.23-0.25 0.493-0.518 0.845-0.576 0.326-0.051 0.618 0.15 0.845 0.362-0.010-0.224 0.022-0.454-0.038-0.675-0.080-0.32-0.16-0.643-0.301-0.944-0.15-0.179-0.426-0.246-0.634-0.134zM10.566 16.704c0.016 0.39 0.106 0.774 0.195 1.155 0.179-0.115 0.384-0.205 0.598-0.195 0.285 0.006 0.538 0.16 0.746 0.342 0.358 0.304 0.589 0.73 0.941 1.040 0.195 0.176 0.438 0.336 0.714 0.336s0.518-0.157 0.717-0.33c0.39-0.339 0.634-0.819 1.059-1.123 0.262-0.202 0.614-0.323 0.944-0.234 0.397 0.102 0.701 0.403 0.957 0.71 0.266 0.336 0.541 0.694 0.934 0.89 0.253 0.128 0.563 0.115 0.806-0.022 0.429-0.23 0.704-0.643 1.008-1.008 0.23-0.256 0.49-0.528 0.838-0.605 0.275-0.058 0.544 0.080 0.752 0.246 0.093-0.342 0.163-0.691 0.192-1.046 0.010-0.064-0.051-0.109-0.083-0.157-0.166-0.186-0.339-0.39-0.582-0.474-0.202-0.070-0.41 0.026-0.563 0.157-0.349 0.294-0.573 0.701-0.902 1.011-0.291 0.285-0.659 0.544-1.085 0.547-0.426 0-0.794-0.259-1.085-0.544-0.352-0.32-0.573-0.774-0.982-1.034-0.214-0.144-0.502-0.189-0.739-0.077-0.333 0.15-0.563 0.448-0.784 0.73-0.272 0.333-0.582 0.662-0.986 0.832-0.301 0.131-0.656 0.102-0.941-0.054-0.461-0.246-0.781-0.672-1.101-1.072-0.205-0.23-0.448-0.49-0.774-0.509-0.333 0.003-0.586 0.256-0.794 0.486zM11.014 18.589c0.163 0.374 0.352 0.739 0.595 1.069 0.669 0.966 1.651 1.706 2.755 2.106 0.643 0.24 1.338 0.326 2.019 0.326 0.451-0.032 0.906-0.058 1.341-0.182 0.675-0.179 1.315-0.483 1.882-0.893 0.838-0.605 1.507-1.443 1.914-2.394-0.109-0.074-0.234-0.141-0.368-0.134-0.186 0.003-0.342 0.115-0.474 0.237-0.326 0.304-0.554 0.701-0.883 0.998-0.288 0.275-0.656 0.515-1.072 0.502-0.438-0.013-0.81-0.294-1.107-0.595-0.32-0.31-0.534-0.723-0.915-0.973-0.208-0.147-0.49-0.202-0.73-0.099-0.323 0.134-0.554 0.413-0.762 0.678-0.243 0.307-0.515 0.608-0.858 0.806-0.25 0.147-0.554 0.214-0.838 0.138-0.374-0.099-0.675-0.365-0.931-0.64-0.31-0.326-0.534-0.752-0.944-0.97-0.195-0.102-0.435-0.083-0.624 0.019z"></path>
</symbol>
<symbol id="icon-treat-3" viewBox="0 0 32 32">
<title>treat-3</title>
<path class="path1" fill="#fff" d="M2.941 9.053c0.205-0.102 0.432-0.131 0.646-0.205 0.042-0.013 0.083-0.019 0.125-0.019 1.066-0.038 2.141 0.182 3.104 0.643 0.838 0.397 1.594 0.973 2.198 1.677 0.547 0.63 0.966 1.363 1.258 2.144 0.547-1.107 1.402-2.064 2.448-2.72 1.117-0.714 2.454-1.075 3.779-1.030 1.213 0.038 2.416 0.416 3.43 1.088 0.806 0.518 1.485 1.226 2 2.032 0.134 0.214 0.262 0.432 0.365 0.662 0.355-1.037 0.982-1.981 1.792-2.72 0.867-0.81 1.958-1.376 3.117-1.629 0.576-0.134 1.171-0.182 1.76-0.134 0.317 0.115 0.64 0.246 0.906 0.461 0.717 0.531 1.123 1.424 1.126 2.307 0.010 0.634-0.179 1.27-0.55 1.786 0.429 0.346 0.746 0.819 0.928 1.341 0.278 0.838 0.186 1.802-0.275 2.557-0.077 0.118-0.163 0.23-0.246 0.342 0.608 0.781 0.771 1.869 0.458 2.803-0.269 0.826-0.928 1.549-1.779 1.776-0.086 0.045-0.17 0.102-0.269 0.109-0.224 0.016-0.451 0.038-0.675 0.042-0.39-0.019-0.784-0.045-1.171-0.109-0.992-0.179-1.939-0.592-2.749-1.19-0.88-0.634-1.587-1.498-2.064-2.467-0.365 1.021-0.973 1.955-1.77 2.694-0.861 0.803-1.939 1.37-3.088 1.629-0.358 0.086-0.726 0.106-1.091 0.141-0.333 0.032-0.666 0.006-0.998-0.019-1.219-0.093-2.394-0.573-3.373-1.296-0.458-0.358-0.896-0.752-1.248-1.219-0.458-0.576-0.816-1.226-1.059-1.917-0.464 0.963-1.171 1.802-2.029 2.442-0.992 0.733-2.189 1.203-3.424 1.283-0.147 0.010-0.294 0.019-0.445 0.032-0.256 0.016-0.512-0.035-0.768-0.032-0.272 0.019-0.534-0.077-0.781-0.179-0.493-0.218-0.906-0.595-1.184-1.056-0.605-0.992-0.582-2.342 0.096-3.293-0.32-0.336-0.541-0.742-0.666-1.178-0.080-0.298-0.138-0.605-0.112-0.915-0.019-0.429 0.096-0.854 0.278-1.238 0.198-0.435 0.512-0.813 0.896-1.098-0.365-0.541-0.541-1.203-0.502-1.856 0.048-0.71 0.33-1.421 0.845-1.92 0.211-0.237 0.483-0.41 0.762-0.55zM3.392 9.949c-0.288 0.106-0.509 0.326-0.691 0.563-0.554 0.755-0.477 1.904 0.173 2.579 0.141 0.154 0.163 0.406 0.048 0.582-0.048 0.074-0.090 0.15-0.131 0.227-0.086 0.147-0.266 0.198-0.394 0.301-0.365 0.269-0.605 0.685-0.707 1.123-0.122 0.666 0.038 1.421 0.554 1.891 0.128 0.131 0.32 0.198 0.4 0.368 0.099 0.186 0.058 0.432-0.096 0.576-0.074 0.077-0.176 0.115-0.278 0.141-0.090 0.179-0.211 0.346-0.262 0.541-0.128 0.362-0.147 0.762-0.061 1.133 0.090 0.384 0.272 0.765 0.589 1.008 0.186 0.173 0.416 0.304 0.669 0.352 0.205 0 0.406 0.019 0.608 0.035 0.186 0.019 0.374-0.010 0.56-0.019 1.206-0.064 2.374-0.56 3.286-1.344 0.902-0.771 1.552-1.827 1.843-2.979-1.040 0.557-2.205 0.88-3.386 0.899-0.25-0.010-0.461-0.24-0.454-0.49-0.006-0.25 0.205-0.48 0.454-0.493 0.33-0.022 0.662-0.048 0.989-0.106 0.883-0.173 1.734-0.512 2.48-1.014 0.010-0.106 0.019-0.208 0.029-0.314-0.163-0.192-0.355-0.352-0.55-0.512-0.768-0.64-1.702-1.069-2.672-1.296-0.154-0.042-0.326-0.045-0.454-0.154-0.176-0.141-0.23-0.406-0.125-0.605 0.096-0.202 0.336-0.31 0.55-0.259 1.114 0.221 2.189 0.678 3.098 1.363-0.067-0.234-0.147-0.461-0.23-0.688-0.515-1.245-1.475-2.31-2.682-2.918-0.765-0.4-1.622-0.614-2.483-0.63-0.234-0.019-0.458 0.061-0.672 0.138zM27.453 9.936c-0.842 0.179-1.648 0.547-2.326 1.078-0.89 0.688-1.574 1.642-1.926 2.707 0.717-0.413 1.491-0.736 2.307-0.893 0.237-0.054 0.493 0.096 0.566 0.326 0.083 0.227-0.032 0.502-0.25 0.602-0.166 0.070-0.352 0.080-0.522 0.144-0.874 0.237-1.693 0.659-2.397 1.229 0.006 0.272 0.067 0.538 0.070 0.813 0.934 0.646 2.045 1.043 3.181 1.139 0.189 0.026 0.349 0.176 0.397 0.358 0.064 0.218-0.051 0.47-0.253 0.57-0.166 0.090-0.362 0.038-0.538 0.026-0.928-0.115-1.83-0.413-2.653-0.851 0.198 0.717 0.55 1.386 0.998 1.978 0.262 0.362 0.595 0.662 0.931 0.954 0.742 0.598 1.638 1.011 2.579 1.178 0.509 0.070 1.027 0.118 1.539 0.048 0.256-0.125 0.528-0.237 0.736-0.438 0.704-0.675 0.771-1.882 0.176-2.65-0.083-0.099-0.154-0.208-0.243-0.298-0.15-0.144-0.182-0.39-0.083-0.573 0.086-0.154 0.25-0.243 0.355-0.384 0.218-0.278 0.362-0.621 0.413-0.97 0.131-0.787-0.253-1.67-0.986-2.029-0.246-0.115-0.378-0.422-0.282-0.678 0.058-0.17 0.224-0.259 0.326-0.4 0.582-0.707 0.582-1.814 0.013-2.531-0.214-0.266-0.509-0.47-0.838-0.566-0.438-0.022-0.867 0.045-1.293 0.112zM16.038 10.538c-0.842 0.029-1.674 0.259-2.419 0.653-1.014 0.538-1.866 1.386-2.394 2.406-0.579 1.075-0.787 2.342-0.618 3.549 0.074 0.374 0.141 0.752 0.275 1.11 0.211 0.589 0.509 1.146 0.899 1.635 0.304 0.416 0.694 0.762 1.098 1.075 0.826 0.605 1.811 1.011 2.835 1.088 0.285 0.022 0.573 0.048 0.858 0.019 0.333-0.032 0.669-0.048 0.995-0.131 1.181-0.275 2.269-0.941 3.050-1.869 0.736-0.864 1.206-1.952 1.334-3.082 0.016-0.138 0.038-0.278 0.013-0.419-0.061-0.381-0.077-0.768-0.070-1.155 0.010-0.298-0.096-0.582-0.173-0.864-0.358-1.142-1.078-2.166-2.035-2.886-0.432-0.304-0.886-0.579-1.382-0.762-0.717-0.278-1.494-0.403-2.266-0.368z"></path>
<path class="path2" fill="#fff" d="M28.56 10.771c0.253-0.106 0.57 0.045 0.65 0.307 0.093 0.259-0.074 0.566-0.342 0.63-0.256 0.077-0.547-0.093-0.608-0.352-0.067-0.234 0.070-0.499 0.301-0.586z"></path>
<path class="path3" fill="#fff" d="M3.12 10.87c0.272-0.083 0.582 0.112 0.621 0.394 0.054 0.272-0.163 0.56-0.442 0.576-0.259 0.032-0.518-0.179-0.538-0.442-0.029-0.234 0.131-0.467 0.358-0.528z"></path>
<path class="path4" fill="#fff" d="M29.325 14.8c0.246-0.048 0.506 0.125 0.56 0.368 0.086 0.323-0.211 0.678-0.544 0.653-0.23-0.006-0.438-0.198-0.464-0.429-0.038-0.272 0.182-0.544 0.448-0.592z"></path>
<path class="path5" fill="#fff" d="M2.573 15.13c0.269-0.083 0.576 0.109 0.618 0.387 0.058 0.275-0.16 0.563-0.438 0.582-0.262 0.032-0.522-0.179-0.538-0.445-0.029-0.234 0.134-0.467 0.358-0.525z"></path>
<path class="path6" fill="#fff" d="M16.749 15.472c0.154-0.195 0.464-0.234 0.662-0.086 0.208 0.141 0.272 0.448 0.138 0.659-0.080 0.122-0.173 0.237-0.246 0.362-0.125 0.208-0.275 0.403-0.362 0.63-0.099 0.234-0.397 0.346-0.63 0.25-0.109-0.038-0.189-0.128-0.256-0.218-0.179-0.246-0.384-0.47-0.592-0.688-0.17-0.186-0.16-0.496 0.019-0.672 0.157-0.166 0.435-0.198 0.624-0.067 0.118 0.083 0.208 0.202 0.304 0.307 0.109-0.166 0.221-0.326 0.339-0.477z"></path>
<path class="path7" fill="#fff" d="M2.858 19.184c0.256-0.093 0.563 0.064 0.634 0.326 0.083 0.259-0.090 0.563-0.358 0.621-0.253 0.067-0.538-0.102-0.595-0.358-0.067-0.24 0.083-0.512 0.32-0.589z"></path>
<path class="path8" fill="#fff" d="M29.168 19.19c0.278-0.083 0.592 0.131 0.618 0.422 0.042 0.275-0.192 0.55-0.47 0.55-0.256 0.019-0.496-0.192-0.512-0.448-0.029-0.234 0.134-0.467 0.365-0.525z"></path>
</symbol>
<symbol id="icon-treat-4" viewBox="0 0 32 32">
<title>treat-4</title>
<path class="path1" d="M3.244 8.943c0.158-0.030 0.308-0.098 0.468-0.115 1.018-0.037 2.046 0.161 2.974 0.582 0.878 0.391 1.668 0.978 2.297 1.704 0.561 0.637 0.99 1.385 1.287 2.179 0.61-1.243 1.612-2.287 2.83-2.945 1.095-0.595 2.358-0.876 3.601-0.793 1.151 0.072 2.285 0.449 3.243 1.091 0.768 0.493 1.414 1.163 1.92 1.921 0.157 0.246 0.313 0.495 0.426 0.765 0.559-1.647 1.804-3.042 3.361-3.811 0.482-0.24 0.994-0.42 1.52-0.537 0.584-0.138 1.19-0.19 1.788-0.138 0.316 0.114 0.636 0.247 0.902 0.459 0.743 0.551 1.154 1.49 1.13 2.407-0.009 0.601-0.199 1.201-0.549 1.691 0.684 0.553 1.092 1.429 1.079 2.308 0.014 0.696-0.228 1.396-0.677 1.929 0.61 0.794 0.776 1.895 0.448 2.838-0.26 0.771-0.86 1.446-1.642 1.707-0.144 0.020-0.253 0.136-0.399 0.146-0.353 0.032-0.707 0.057-1.060 0.018-1.986-0.092-3.883-1.171-5.029-2.787-0.215-0.302-0.404-0.622-0.571-0.953-0.366 1.020-0.975 1.955-1.772 2.691-0.84 0.782-1.885 1.341-3.001 1.606-0.447 0.116-0.91 0.137-1.368 0.173-0.756 0.007-1.519-0.081-2.239-0.321-1.108-0.36-2.111-1.022-2.898-1.879-0.586-0.663-1.059-1.431-1.35-2.268-0.489 1.011-1.244 1.888-2.159 2.536-0.78 0.552-1.68 0.931-2.619 1.108-0.37 0.063-0.745 0.085-1.119 0.11-0.278 0.016-0.554-0.042-0.831-0.032-0.199 0.006-0.392-0.060-0.577-0.125-0.369-0.144-0.713-0.362-0.977-0.66-0.936-0.988-1.040-2.64-0.25-3.746-0.544-0.583-0.813-1.399-0.769-2.191 0.004-0.442 0.137-0.877 0.344-1.265 0.193-0.385 0.488-0.712 0.831-0.969-0.402-0.597-0.574-1.34-0.485-2.053 0.065-0.454 0.209-0.902 0.466-1.285 0.337-0.508 0.836-0.927 1.426-1.099zM3.681 9.856c-0.294 0.070-0.583 0.2-0.787 0.43-0.412 0.397-0.603 0.99-0.559 1.555 0.040 0.442 0.195 0.889 0.507 1.214 0.108 0.107 0.17 0.261 0.15 0.413-0.013 0.155-0.125 0.272-0.189 0.406-0.062 0.129-0.197 0.191-0.313 0.262-0.424 0.266-0.699 0.725-0.807 1.206-0.113 0.66 0.049 1.406 0.557 1.869 0.127 0.13 0.318 0.197 0.4 0.369 0.099 0.187 0.057 0.432-0.095 0.578-0.074 0.078-0.178 0.113-0.279 0.143-0.092 0.178-0.21 0.344-0.263 0.54-0.229 0.652-0.103 1.425 0.335 1.962 0.235 0.245 0.518 0.474 0.862 0.534 0.321-0.006 0.64 0.064 0.961 0.029 0.268-0.018 0.537-0.037 0.803-0.080 1.064-0.19 2.072-0.692 2.86-1.433 0.815-0.754 1.401-1.748 1.673-2.825-1.038 0.555-2.205 0.879-3.384 0.9-0.25-0.010-0.463-0.242-0.456-0.492-0.007-0.25 0.204-0.479 0.454-0.492 0.331-0.023 0.662-0.048 0.988-0.107 0.883-0.172 1.736-0.51 2.482-1.015 0.009-0.105 0.018-0.209 0.030-0.314-0.907-0.968-2.143-1.596-3.438-1.852-0.18-0.029-0.337-0.161-0.392-0.336-0.071-0.211 0.020-0.463 0.214-0.575 0.13-0.084 0.292-0.083 0.437-0.048 1.089 0.227 2.137 0.679 3.027 1.35-0.102-0.332-0.206-0.664-0.36-0.976-0.368-0.767-0.906-1.452-1.565-1.988-0.932-0.759-2.11-1.213-3.312-1.266-0.181-0.007-0.368-0.027-0.542 0.036zM27.899 9.868c-0.939 0.107-1.842 0.472-2.608 1.022-0.966 0.699-1.716 1.699-2.092 2.833 0.725-0.417 1.51-0.746 2.336-0.897 0.25-0.044 0.508 0.141 0.554 0.389 0.061 0.258-0.124 0.537-0.383 0.585-1.021 0.22-1.994 0.67-2.803 1.334 0.005 0.226 0.054 0.447 0.062 0.673 0.009 0.060-0.009 0.142 0.060 0.173 0.926 0.625 2.015 1.011 3.129 1.103 0.181 0.026 0.337 0.164 0.39 0.338 0.076 0.222-0.035 0.486-0.245 0.59-0.161 0.088-0.348 0.044-0.521 0.029-0.934-0.113-1.844-0.412-2.674-0.854 0.22 0.799 0.633 1.535 1.155 2.175 0.214 0.265 0.473 0.486 0.725 0.713 0.753 0.622 1.666 1.051 2.629 1.22 0.509 0.068 1.028 0.122 1.54 0.048 0.188-0.096 0.389-0.17 0.56-0.297 0.284-0.193 0.482-0.488 0.612-0.802 0.204-0.52 0.188-1.122-0.044-1.63-0.106-0.24-0.276-0.444-0.446-0.641-0.142-0.131-0.195-0.348-0.125-0.529 0.060-0.178 0.238-0.27 0.351-0.41 0.528-0.631 0.622-1.593 0.205-2.307-0.172-0.327-0.458-0.585-0.788-0.748-0.296-0.157-0.374-0.614-0.118-0.842 0.646-0.569 0.815-1.571 0.457-2.342-0.198-0.456-0.6-0.824-1.079-0.964-0.281-0.026-0.561 0.014-0.839 0.039zM16.041 10.538c-0.624 0.022-1.244 0.151-1.824 0.381-1.18 0.456-2.197 1.321-2.84 2.41-0.676 1.116-0.942 2.464-0.776 3.755 0.095 0.569 0.228 1.137 0.482 1.658 0.228 0.518 0.551 0.989 0.916 1.42 0.798 0.89 1.87 1.543 3.042 1.796 0.346 0.083 0.702 0.104 1.056 0.127 0.3 0.022 0.6-0.020 0.899-0.045 0.434-0.035 0.855-0.156 1.263-0.302 1.062-0.396 2.001-1.115 2.656-2.040 0.624-0.873 1.003-1.924 1.065-2.996-0.049-0.392-0.093-0.786-0.082-1.181 0.008-0.177-0.004-0.355-0.052-0.526-0.207-0.877-0.613-1.709-1.192-2.401-0.35-0.418-0.75-0.798-1.211-1.092-0.991-0.677-2.203-1.021-3.402-0.964z"></path>
<path class="path2" d="M4.78 10.352c0.259-0.072 0.55 0.106 0.603 0.37 0.067 0.258-0.115 0.543-0.376 0.594-0.266 0.066-0.557-0.132-0.593-0.403-0.047-0.245 0.124-0.504 0.367-0.56z"></path>
<path class="path3" d="M28.461 10.996c0.254-0.090 0.558 0.068 0.628 0.329 0.089 0.269-0.102 0.583-0.382 0.627-0.261 0.056-0.54-0.136-0.579-0.4-0.046-0.235 0.105-0.485 0.333-0.556z"></path>
<path class="path4" d="M18.22 11.629c0.284-0.088 0.607 0.134 0.624 0.431 0.034 0.273-0.2 0.54-0.475 0.54-0.261 0.017-0.505-0.207-0.51-0.468-0.017-0.226 0.143-0.446 0.361-0.502z"></path>
<path class="path5" d="M14.379 12.624c0.273-0.113 0.612 0.076 0.659 0.367 0.057 0.256-0.125 0.532-0.383 0.58-0.238 0.055-0.499-0.094-0.571-0.327-0.087-0.243 0.051-0.535 0.295-0.62z"></path>
<path class="path6" d="M3.244 14.192c0.247-0.053 0.514 0.114 0.572 0.36 0.054 0.239-0.052 0.526-0.282 0.632-0.208 0.105-0.482 0.034-0.614-0.156-0.216-0.288-0.037-0.776 0.324-0.836z"></path>
<path class="path7" d="M17.741 14.255c0.266-0.092 0.58 0.090 0.631 0.367 0.065 0.261-0.124 0.548-0.389 0.591-0.249 0.054-0.518-0.118-0.573-0.366-0.067-0.245 0.088-0.521 0.332-0.591z"></path>
<path class="path8" d="M24.745 14.54c0.264-0.107 0.591 0.065 0.652 0.342 0.077 0.271-0.125 0.575-0.404 0.61-0.262 0.048-0.534-0.153-0.564-0.418-0.037-0.224 0.102-0.459 0.316-0.534z"></path>
<path class="path9" d="M6.83 15.061c0.273-0.067 0.57 0.144 0.594 0.424 0.040 0.268-0.178 0.536-0.447 0.551-0.263 0.031-0.521-0.185-0.535-0.449-0.028-0.241 0.151-0.48 0.388-0.526z"></path>
<path class="path10" d="M11.726 15.444c0.315-0.080 0.672 0.195 0.659 0.524 0 0.198-0.134 0.387-0.321 0.453-0.308 0.121-0.689-0.126-0.714-0.454-0.024-0.236 0.145-0.47 0.375-0.523z"></path>
<path class="path11" d="M28.105 15.468c0.335-0.135 0.727 0.183 0.701 0.533-0.008 0.229-0.197 0.433-0.425 0.46-0.325 0.050-0.648-0.27-0.597-0.596 0.022-0.179 0.151-0.338 0.321-0.398z"></path>
<path class="path12" d="M19.626 16.14c0.256-0.103 0.572 0.055 0.645 0.32 0.088 0.264-0.092 0.573-0.364 0.626-0.246 0.062-0.517-0.099-0.583-0.343-0.076-0.24 0.064-0.521 0.303-0.603z"></path>
<path class="path13" d="M15.086 16.407c0.271-0.086 0.583 0.11 0.623 0.391 0.056 0.273-0.163 0.56-0.441 0.577-0.262 0.032-0.52-0.181-0.537-0.444-0.028-0.231 0.132-0.464 0.356-0.524z"></path>
<path class="path14" d="M13.23 18.419c0.237-0.065 0.506 0.076 0.585 0.309 0.076 0.226 0.007 0.513-0.203 0.644-0.204 0.138-0.505 0.090-0.655-0.106-0.227-0.274-0.086-0.768 0.273-0.847z"></path>
<path class="path15" d="M25.58 18.674c0.273-0.088 0.588 0.111 0.626 0.395 0.053 0.273-0.166 0.556-0.443 0.572-0.258 0.031-0.513-0.177-0.535-0.436-0.032-0.233 0.127-0.47 0.353-0.532z"></path>
<path class="path16" d="M3.718 19.305c0.293-0.116 0.649 0.119 0.657 0.434 0.034 0.342-0.34 0.624-0.662 0.536-0.219-0.054-0.383-0.273-0.367-0.499 0.001-0.22 0.171-0.405 0.373-0.471z"></path>
<path class="path17" d="M28.686 19.32c0.285-0.093 0.611 0.128 0.631 0.426 0.047 0.238-0.096 0.499-0.33 0.571-0.271 0.102-0.598-0.089-0.644-0.374-0.066-0.257 0.080-0.554 0.343-0.623z"></path>
<path class="path18" d="M18.060 19.925c0.271-0.11 0.606 0.074 0.657 0.362 0.065 0.269-0.14 0.561-0.415 0.591-0.254 0.043-0.516-0.147-0.556-0.401-0.046-0.229 0.094-0.474 0.314-0.552z"></path>
</symbol>
</defs>
</svg>
